<svg xmlns="http://www.w3.org/2000/svg" xmlns:xlink="http://www.w3.org/1999/xlink" viewBox="0 0 41 41" version="1.1" x="0px" y="0px"><title>clock</title><desc>Created with Sketch.</desc><g stroke="none" stroke-width="1" fill="none" fill-rule="evenodd"><g transform="translate(-180.000000, -165.000000)" fill="#000000"><path d="M200.111,167 C210.097,167 218.221,175.125 218.221,185.111 C218.221,195.097 210.097,203.221 200.111,203.221 C190.125,203.221 182,195.097 182,185.111 C182,175.125 190.125,167 200.111,167 M200.111,205.221 C211.2,205.221 220.221,196.2 220.221,185.111 C220.221,174.021 211.2,165 200.111,165 C189.021,165 180,174.021 180,185.111 C180,196.2 189.021,205.221 200.111,205.221 Z M199.1804,185.8433 L210.1804,185.8433 C210.7334,185.8433 211.1804,185.3953 211.1804,184.8433 C211.1804,184.2913 210.7334,183.8433 210.1804,183.8433 L200.1804,183.8433 L200.1804,171.8433 C200.1804,171.2913 199.7334,170.8433 199.1804,170.8433 C198.6274,170.8433 198.1804,171.2913 198.1804,171.8433 L198.1804,184.8433 C198.1804,185.3953 198.6274,185.8433 199.1804,185.8433 Z"></path></g></g></svg>